<svg xmlns="http://www.w3.org/2000/svg" width="22" height="22" viewBox="0 0 22 22"><path d="M22 19.362A2.646 2.646 0 0119.362 22H2.638A2.647 2.647 0 010 19.362V2.638A2.647 2.647 0 012.638 0H19.36A2.647 2.647 0 0122 2.638z" fill="#3b3b3b"/><path d="M2.547 9.31v9.139a1.03 1.03 0 001.027 1.027h14.954a1.03 1.03 0 001.027-1.027V9.31z" fill="#fff"/><path d="M17.747 10.996a6.769 6.769 0 11-6.768-6.768 6.768 6.768 0 016.768 6.768z" fill="#3b3b3b"/><path d="M15.205 10.997a4.227 4.227 0 11-4.227-4.227 4.226 4.226 0 014.227 4.227zm4.349-5.254a1.03 1.03 0 01-1.027 1.027h-2.3A1.03 1.03 0 0115.2 5.743v-2.3a1.03 1.03 0 011.027-1.027h2.3a1.03 1.03 0 011.027 1.027v2.3z" fill="#fff"/></svg>