<svg xmlns="http://www.w3.org/2000/svg" width="22" height="22" viewBox="0 0 22 22"><path d="M2.588 0h16.824A2.588 2.588 0 0122 2.588v16.824A2.588 2.588 0 0119.412 22H2.588A2.588 2.588 0 010 19.412V2.588A2.588 2.588 0 012.588 0z" fill="#3b3b3b"/><path d="M17.233 22H4.767A4.767 4.767 0 010 17.233V4.767A4.767 4.767 0 014.767 0h12.466A4.767 4.767 0 0122 4.767v12.466A4.767 4.767 0 0117.233 22z" fill="#3b3b3b"/><path d="M18.975 10.032c0-3.584-3.593-6.5-8.01-6.5s-8.01 2.917-8.01 6.5c0 3.214 2.849 5.905 6.7 6.413.26.057.616.172.706.394a1.637 1.637 0 01.026.724l-.114.686c-.035.2-.161.792.693.433a25.871 25.871 0 006.294-4.651 5.786 5.786 0 001.716-4" fill="#fff"/><path d="M9.337 8.302h-.561a.156.156 0 00-.156.156v3.491a.156.156 0 00.156.156h.561a.156.156 0 00.156-.156V8.458a.156.156 0 00-.156-.156m3.866 0h-.561a.156.156 0 00-.156.156v2.072l-1.6-2.16a.1.1 0 00-.013-.016s-.005-.007-.009-.009a.04.04 0 00-.009-.007l-.007-.006h-.006l-.009-.005h-.03a.007.007 0 01-.005 0h-.016a.011.011 0 01-.007 0h-.574a.156.156 0 00-.156.156v3.491a.156.156 0 00.156.156h.561a.156.156 0 00.156-.156V9.875l1.6 2.163a.162.162 0 00.04.039l.009.006h.031a.143.143 0 00.04.006h.561a.156.156 0 00.156-.156V8.458a.15.15 0 00-.152-.156M7.982 11.23H6.455V8.458a.156.156 0 00-.156-.156h-.561a.156.156 0 00-.156.156v3.491a.152.152 0 00.044.108.152.152 0 00.108.044h2.248a.156.156 0 00.156-.156v-.563a.156.156 0 00-.156-.156m8.325-2.051a.156.156 0 00.156-.153v-.561a.156.156 0 00-.156-.156h-2.246a.152.152 0 00-.108.044.152.152 0 00-.044.108v3.489a.152.152 0 00.044.108.152.152 0 00.108.044h2.244a.156.156 0 00.156-.156v-.563a.156.156 0 00-.156-.156h-1.527v-.59h1.527a.156.156 0 00.156-.156v-.555a.156.156 0 00-.156-.156h-1.527v-.59h1.529z" fill="#3b3b3b"/></svg>