<svg xmlns="http://www.w3.org/2000/svg" width="22" height="22" viewBox="0 0 22 22"><path d="M2.588 0h16.824A2.588 2.588 0 0122 2.588v16.824A2.588 2.588 0 0119.412 22H2.588A2.588 2.588 0 010 19.412V2.588A2.588 2.588 0 012.588 0z" fill="#3b3b3b"/><path d="M8.177 17.092a8.872 8.872 0 008.933-8.933c0-.136 0-.271-.009-.406a6.388 6.388 0 001.564-1.625 6.266 6.266 0 01-1.8.494 3.15 3.15 0 001.38-1.736 6.291 6.291 0 01-1.994.762 3.142 3.142 0 00-5.35 2.863 8.913 8.913 0 01-6.47-3.28 3.142 3.142 0 00.972 4.191 3.116 3.116 0 01-1.425-.393v.04a3.141 3.141 0 002.519 3.078 3.135 3.135 0 01-1.418.054 3.143 3.143 0 002.933 2.18 6.3 6.3 0 01-3.9 1.347 6.392 6.392 0 01-.747-.045 8.888 8.888 0 004.812 1.408" fill="#fff"/></svg>